<svg width="805" height="605" viewBox="0 0 805 605" fill="none" xmlns="http://www.w3.org/2000/svg">
<path d="M535.833 151.5H447.111C430.969 151.5 417.87 164.79 417.87 181.2C417.87 214.827 391.023 242.1 357.889 242.1H179.444C81.1757 242.1 1.50011 322.995 1.5 422.8C1.5 522.605 81.1756 603.5 179.444 603.5H434.656L387.29 483.7H179.444C146.31 483.7 119.463 456.427 119.463 422.8C119.463 389.173 146.31 361.9 179.444 361.9H357.889C456.157 361.9 535.833 281.005 535.833 181.2V151.5ZM625.556 241.1C724.391 241.1 804.5 322.457 804.5 422.8C804.5 523.143 724.391 604.5 625.556 604.5H465.133C464.928 604.5 464.742 604.374 464.667 604.184L416.905 483.384C416.844 483.23 416.864 483.056 416.957 482.919C417.05 482.782 417.205 482.7 417.37 482.7H625.556C658.123 482.7 684.537 455.889 684.537 422.8C684.537 389.711 658.123 362.9 625.556 362.9H465.147C464.924 362.9 464.727 362.751 464.666 362.535C464.605 362.32 464.696 362.09 464.887 361.974C508.748 335.145 542.028 292.327 556.939 241.459L556.969 241.383C557.051 241.212 557.225 241.1 557.419 241.1H625.556ZM720.638 -0.5L720.713 -0.494141C720.887 -0.467637 721.036 -0.350656 721.103 -0.183594L768.864 120.616C768.925 120.77 768.906 120.944 768.813 121.081C768.72 121.218 768.565 121.3 768.399 121.3H447.111C414.798 121.3 388.543 147.694 388.135 180.426L388.13 181.2L388.12 181.992C387.706 198.574 374.336 211.9 357.889 211.9H271.193C270.949 211.9 270.74 211.723 270.7 211.481C269.174 202.248 268.283 192.785 268.178 183.133L268.167 181.2L268.182 178.852C269.42 79.5908 349.048 -0.5 447.111 -0.5H720.638ZM447.111 0.5C349.007 0.5 269.435 81.125 269.17 180.7H387.133C387.397 147.303 414.142 120.3 447.111 120.3H767.664L720.298 0.5H447.111ZM339.853 -0.5L339.936 -0.493164C340.124 -0.46163 340.281 -0.32415 340.334 -0.135742C340.395 0.0798235 340.304 0.309902 340.113 0.426758C296.252 27.2553 262.972 70.0728 248.061 120.94C247.998 121.153 247.803 121.3 247.581 121.3H60.4814C60.2763 121.3 60.092 121.174 60.0166 120.983L12.2549 0.183594C12.194 0.0296639 12.2126 -0.144366 12.3057 -0.28125C12.3988 -0.418159 12.5542 -0.5 12.7197 -0.5H339.853ZM60.8213 120.3H247.209C262.071 69.93 294.868 27.4468 338.097 0.5H13.4551L60.8213 120.3ZM536.833 181.2C536.833 281.543 456.724 362.9 357.889 362.9H179.444C146.877 362.9 120.463 389.711 120.463 422.8C120.463 455.889 146.877 482.7 179.444 482.7H387.63L387.705 482.706C387.879 482.733 388.029 482.85 388.095 483.017L435.856 603.816C435.917 603.97 435.899 604.144 435.806 604.281C435.713 604.418 435.557 604.5 435.392 604.5H179.444C80.6089 604.5 0.5 523.143 0.5 422.8C0.500114 322.457 80.609 241.1 179.444 241.1H357.889C390.456 241.1 416.87 214.289 416.87 181.2C416.87 164.252 430.403 150.5 447.111 150.5H536.333C536.609 150.5 536.833 150.724 536.833 151V181.2Z" stroke="url(#paint0_linear_148_129)" stroke-linejoin="round"/>
<defs>
<linearGradient id="paint0_linear_148_129" x1="402.5" y1="0" x2="402.5" y2="472" gradientUnits="userSpaceOnUse">
<stop offset="0.620192" stop-color="white" stop-opacity="0.1"/>
<stop offset="1" stop-color="#00020B" stop-opacity="0"/>
</linearGradient>
</defs>
</svg>
